<?xml version="1.0" encoding="UTF-8"?>
<svg id="Logo_10" data-name="Logo 10" xmlns="http://www.w3.org/2000/svg" viewBox="0 0 420 100">
  <defs>
    <style>
      .cls-1 {
        fill: #ffffff;
      }

      .cls-1, .cls-2 {
        stroke-width: 0px;
      }

      .cls-2 {
        fill: #cd3f37;
      }
    </style>
  </defs>
  <g>
    <path class="cls-1" d="m226.94,68.04c0,2.75-1.9,3.79-4.22,2.31l-36.8-23.47c-2.32-1.48-4.22-4.94-4.22-7.69v-3.39c0-2.75,1.9-6.21,4.22-7.69l36.8-23.47c2.32-1.48,4.22-.44,4.22,2.31v7.77c0,2.75-1.93,6.16-4.28,7.58l-20.52,12.38c-2.35,1.42-4.28,2.69-4.28,2.81s1.93,1.39,4.28,2.81l20.52,12.37c2.35,1.42,4.28,4.83,4.28,7.58v7.77Z"/>
    <path class="cls-2" d="m234.02,70.35c-2.32,1.48-4.22.44-4.22-2.31v-7.77c0-2.75,1.93-6.16,4.28-7.58l20.52-12.37c2.35-1.42,4.28-2.69,4.28-2.81s-1.93-1.39-4.28-2.81l-20.52-12.38c-2.35-1.42-4.28-4.83-4.28-7.58v-7.77c0-2.75,1.9-3.79,4.22-2.31l36.8,23.47c2.32,1.48,4.22,4.94,4.22,7.69v3.39c0,2.75-1.9,6.21-4.22,7.69l-36.8,23.47Z"/>
    <circle class="cls-2" cx="216.37" cy="37.5" r="5.79"/>
    <circle class="cls-1" cx="240.55" cy="37.5" r="5.79"/>
    <path class="cls-1" d="m228.54,41.79c-.51,0-.93-.17-1.25-.51-.32-.34-.48-.75-.48-1.23s.16-.88.48-1.22c.32-.34.74-.51,1.25-.51s.94.17,1.26.51c.31.34.47.75.47,1.22s-.16.89-.47,1.23c-.32.34-.74.51-1.26.51Zm-1.09,6.87l-.55-1.31c.6-.2,1.05-.45,1.34-.76.29-.31.42-.64.41-1h-.11c-.28,0-.54-.06-.78-.18-.24-.12-.44-.29-.59-.51-.15-.22-.23-.49-.23-.81,0-.44.16-.81.49-1.08s.72-.42,1.18-.42c.6,0,1.06.22,1.37.66s.46,1.05.46,1.84c0,.87-.25,1.61-.75,2.22-.5.61-1.24,1.06-2.24,1.34Z"/>
  </g>
  <g>
    <path class="cls-1" d="m93.86,13.01c4.58,4.59,6.88,10.99,6.88,19.21v35.78h-15.41v-33.68c0-4.77-1.21-8.42-3.63-10.95s-5.72-3.8-9.91-3.8-7.5,1.27-9.96,3.8c-2.46,2.53-3.69,6.18-3.69,10.95v33.68h-15.41v-33.68c0-4.77-1.21-8.42-3.63-10.95s-5.72-3.8-9.91-3.8-7.61,1.27-10.07,3.8c-2.46,2.53-3.69,6.18-3.69,10.95v33.68H.01V7.01h15.41v7.38c1.98-2.57,4.53-4.59,7.65-6.05,3.12-1.47,6.55-2.2,10.29-2.2,4.77,0,9.03,1.01,12.77,3.03,3.74,2.02,6.64,4.9,8.7,8.64,1.98-3.52,4.86-6.35,8.64-8.48,3.78-2.13,7.87-3.19,12.27-3.19,7.49,0,13.52,2.29,18.11,6.88Z"/>
    <path class="cls-1" d="m115.1,20.88c2.46-4.77,5.8-8.44,10.02-11.01,4.22-2.57,8.93-3.85,14.14-3.85,4.55,0,8.53.92,11.94,2.75,3.41,1.84,6.15,4.15,8.2,6.94V7.01h15.52v60.98h-15.52v-8.92c-1.98,2.86-4.72,5.23-8.2,7.1-3.49,1.87-7.5,2.81-12.05,2.81-5.14,0-9.82-1.32-14.04-3.96-4.22-2.64-7.56-6.37-10.02-11.17-2.46-4.81-3.69-10.33-3.69-16.57s1.23-11.63,3.69-16.4Zm42.11,6.99c-1.47-2.68-3.45-4.73-5.94-6.16-2.5-1.43-5.17-2.15-8.04-2.15s-5.5.7-7.93,2.09c-2.42,1.4-4.39,3.43-5.89,6.11-1.5,2.68-2.26,5.85-2.26,9.52s.75,6.88,2.26,9.63c1.5,2.75,3.48,4.86,5.94,6.33,2.46,1.47,5.08,2.2,7.87,2.2s5.54-.72,8.04-2.15c2.49-1.43,4.48-3.49,5.94-6.17,1.47-2.68,2.2-5.89,2.2-9.63s-.73-6.95-2.2-9.63Z"/>
    <path class="cls-1" d="m285.53,20.88c2.46-4.77,5.8-8.44,10.02-11.01,4.22-2.57,8.93-3.85,14.14-3.85,4.55,0,8.53.92,11.94,2.75,3.41,1.84,6.15,4.15,8.2,6.94V7.01h15.52v60.98h-15.52v-8.92c-1.98,2.86-4.72,5.23-8.2,7.1-3.49,1.87-7.5,2.81-12.05,2.81-5.14,0-9.82-1.32-14.04-3.96-4.22-2.64-7.56-6.37-10.02-11.17-2.46-4.81-3.69-10.33-3.69-16.57s1.23-11.63,3.69-16.4Zm42.11,6.99c-1.47-2.68-3.45-4.73-5.94-6.16-2.5-1.43-5.17-2.15-8.04-2.15s-5.5.7-7.93,2.09c-2.42,1.4-4.39,3.43-5.89,6.11-1.5,2.68-2.26,5.85-2.26,9.52s.75,6.88,2.26,9.63c1.5,2.75,3.48,4.86,5.94,6.33,2.46,1.47,5.08,2.2,7.87,2.2s5.54-.72,8.04-2.15c2.49-1.43,4.48-3.49,5.94-6.17,1.47-2.68,2.2-5.89,2.2-9.63s-.73-6.95-2.2-9.63Z"/>
    <path class="cls-1" d="m396.32,8.71c3.45,1.8,6.16,4.13,8.15,6.99V7.01h15.52v61.42c0,5.65-1.14,10.69-3.41,15.14-2.28,4.44-5.69,7.96-10.24,10.57-4.55,2.6-10.06,3.91-16.51,3.91-8.66,0-15.76-2.02-21.3-6.05-5.54-4.04-8.68-9.54-9.41-16.51h15.3c.81,2.79,2.55,5.01,5.23,6.66,2.68,1.65,5.92,2.48,9.74,2.48,4.48,0,8.11-1.34,10.9-4.02,2.79-2.68,4.18-6.73,4.18-12.16v-9.47c-1.98,2.86-4.72,5.25-8.2,7.16-3.49,1.91-7.47,2.86-11.94,2.86-5.14,0-9.83-1.32-14.09-3.96-4.26-2.64-7.61-6.37-10.07-11.17-2.46-4.81-3.69-10.33-3.69-16.57s1.23-11.63,3.69-16.4c2.46-4.77,5.8-8.44,10.02-11.01,4.22-2.57,8.93-3.85,14.14-3.85,4.55,0,8.55.9,12,2.7Zm5.94,19.15c-1.47-2.68-3.45-4.73-5.94-6.16-2.5-1.43-5.17-2.15-8.04-2.15s-5.5.7-7.93,2.09c-2.42,1.4-4.39,3.43-5.89,6.11-1.5,2.68-2.26,5.85-2.26,9.52s.75,6.88,2.26,9.63c1.5,2.75,3.48,4.86,5.94,6.33,2.46,1.47,5.08,2.2,7.87,2.2s5.54-.72,8.04-2.15c2.49-1.43,4.48-3.49,5.94-6.17,1.47-2.68,2.2-5.89,2.2-9.63s-.73-6.95-2.2-9.63Z"/>
  </g>
</svg>